<?xml version="1.0" encoding="UTF-8"?>
<svg width="11px" height="6px" viewBox="0 0 11 6" version="1.1" xmlns="http://www.w3.org/2000/svg" xmlns:xlink="http://www.w3.org/1999/xlink">
    <!-- Generator: Sketch 46.2 (44496) - http://www.bohemiancoding.com/sketch -->
    <title>el-icon-arrow-down</title>
    <desc>Created with Sketch.</desc>
    <defs></defs>
    <g id="Page-1" stroke="none" stroke-width="1" fill="none" fill-rule="evenodd">
        <g id="1-题目列表页" transform="translate(-1463.000000, -1263.000000)" fill="#D3DCE6">
            <g id="Group-18" transform="translate(1365.000000, 942.000000)">
                <g id="Group-14-Copy" transform="translate(32.000000, 308.000000)">
                    <g id="Group-13" transform="translate(11.000000, 7.000000)">
                        <g id="Group-38" transform="translate(55.000000, 6.000000)">
                            <path d="M3.05478949,3.23222757 C2.95676818,2.99434659 2.98886244,2.70329929 3.16244137,2.51200722 L7.09769393,-1.8295807 C7.31228854,-2.06619421 7.65057073,-2.05494724 7.8537848,-1.80501879 C8.05662143,-1.55471676 8.04732256,-1.1601252 7.83272794,-0.923084748 L4.30178756,2.97314677 L7.8187968,6.92720084 C8.031264,7.16633592 8.037692,7.56092749 7.83272796,7.80913488 C7.72791263,7.93641387 7.58784624,8 7.44772266,8 C7.31407283,8 7.18037725,7.94181723 7.07664852,7.82538495 L3.17707021,3.44134403 C3.16956706,3.43265864 3.16673051,3.42058448 3.15922736,3.41147215 C3.1535085,3.4051749 3.14748082,3.40062542 3.14177339,3.39395461 C3.11146342,3.35695832 3.09541629,3.3116502 3.07474832,3.26921052 C3.06905234,3.25632252 3.05977633,3.2455425 3.05478949,3.23222757 Z" id="el-icon-arrow-down" transform="translate(5.500000, 3.000000) scale(-1, 1) rotate(-90.000000) translate(-5.500000, -3.000000) "></path>
                        </g>
                    </g>
                </g>
            </g>
        </g>
    </g>
</svg>