<?xml version="1.0" encoding="UTF-8"?>
<svg width="26px" height="24px" viewBox="0 0 26 24" version="1.1" xmlns="http://www.w3.org/2000/svg" xmlns:xlink="http://www.w3.org/1999/xlink">
    <!-- Generator: Sketch 46.2 (44496) - http://www.bohemiancoding.com/sketch -->
    <title>el-icon-search</title>
    <desc>Created with Sketch.</desc>
    <defs></defs>
    <g id="Page-1" stroke="none" stroke-width="1" fill="none" fill-rule="evenodd">
        <g id="1-题目列表" transform="translate(-52.000000, -167.000000)" fill-rule="nonzero" fill="#E0E0E0">
            <g id="Group-4" transform="translate(24.000000, 152.000000)">
                <path d="M42,30.6666667 L42,30.6666667 C45.6818983,30.6666667 48.6666667,27.6818983 48.6666667,24 C48.6666667,20.3181017 45.6818983,17.3333333 42,17.3333333 C38.3181017,17.3333333 35.3333333,20.3181017 35.3333333,24 C35.3333333,27.6818983 38.3181017,30.6666667 42,30.6666667 L42,30.6666667 Z M40.8888889,33.938968 C35.8889439,33.3862521 32,29.1472818 32,24 C32,18.4771525 36.4771525,14 42,14 C47.5228475,14 52,18.4771525 52,24 C52,28.7590831 48.6755304,32.7416947 44.2222222,33.752204 L44.2222222,41.8832551 C44.2222222,42.4386513 43.7726741,42.8888889 43.2221123,42.8888889 L41.8889988,42.8888889 C41.3366533,42.8888889 40.8888889,42.4395586 40.8888889,41.8832551 L40.8888889,33.938968 Z" id="el-icon-search" transform="translate(42.000000, 28.444444) rotate(-45.000000) translate(-42.000000, -28.444444) "></path>
            </g>
        </g>
    </g>
</svg>