<?xml version="1.0" encoding="UTF-8"?>
<svg width="32px" height="32px" viewBox="0 0 32 32" version="1.1" xmlns="http://www.w3.org/2000/svg" xmlns:xlink="http://www.w3.org/1999/xlink">
    <!-- Generator: Sketch 46.2 (44496) - http://www.bohemiancoding.com/sketch -->
    <title>el-icon-close</title>
    <desc>Created with Sketch.</desc>
    <defs></defs>
    <g id="Page-1" stroke="none" stroke-width="1" fill="none" fill-rule="evenodd">
        <g id="1-2-导航样式" transform="translate(-24.000000, -68.000000)" fill="#FFFFFF">
            <path d="M40,80.873266 L27.7759584,68.6492244 C26.9101008,67.7833668 25.5111604,67.7843129 24.6477367,68.6477367 C23.7782933,69.51718 23.784979,70.911713 24.6492244,71.7759584 L36.873266,84 L24.6492244,96.2240416 C23.7833668,97.0898992 23.7843129,98.4888396 24.6477367,99.3522633 C25.51718,100.221707 26.911713,100.215021 27.7759584,99.3507756 L40,87.126734 L52.2240416,99.3507756 C53.0898992,100.216633 54.4888396,100.215687 55.3522633,99.3522633 C56.2217067,98.48282 56.215021,97.088287 55.3507756,96.2240416 L43.126734,84 L55.3507756,71.7759584 C56.2166332,70.9101008 56.2156871,69.5111604 55.3522633,68.6477367 C54.48282,67.7782933 53.088287,67.784979 52.2240416,68.6492244 L40,80.873266 Z" id="el-icon-close"></path>
        </g>
    </g>
</svg>